<svg width="128" height="130" fill="none" xmlns="http://www.w3.org/2000/svg"><path d="M120.5 39.3C109.2 3 57.6-16.9 21.2 18.7c-29 28.4-23.9 49-10.4 83.5C27 143.9 89.5 126 95.9 121.8c30.5-19.9 40.3-31.8 24.6-82.5z" fill="#F7F7FF"/><path d="m46.8 19.3-.3 2.4 1.1 2.3-2.5-.3-2.2 1 .3-2.4-1.1-2.3 2.5.3 2.2-1zm58.1 62.1-.2 2.2.9 2.1-2.2-.3-2.1 1 .3-2.3-1-2 2.3.3 2-1z" fill="#6464FF"/><path d="m25.7 68.4-.2 1.8.7 1.6-1.8-.2-1.6.7.2-1.7-.7-1.7 1.8.3 1.6-.8z" fill="#606CF6"/><path opacity=".1" d="M66.6 114.4c17.949 0 32.5-1.119 32.5-2.5s-14.551-2.5-32.5-2.5c-17.95 0-32.5 1.119-32.5 2.5s14.55 2.5 32.5 2.5z" fill="#616CF6"/><path d="M44.8 97.1V84.5L82 46.6" stroke="#6464FF" stroke-width="1.5" stroke-linecap="round" stroke-linejoin="round"/><path d="M88.8 74.6 86.7 77c-.5.5-1.1 1-1.7 1.5-7.6 6.4-18 8.3-27.1 4-2.5-1.2-4.7-2.7-6.6-4.7-7.6-7.6-9.8-19.9-4.7-30.8.4-.8.7-1.5 1.2-2.2.5-.9 1.1-1.8 1.8-2.7l4.2 3.5 16 13.4 19 15.6z" fill="#fff" stroke="#6464FF" stroke-width="1.5" stroke-linecap="round" stroke-linejoin="round"/><path d="M88.8 74.6c-.2.5-.4.9-.7 1.2-.4.5-.9.8-1.4 1.1-2 .8-4.1 1-6.2.5-.6-.1-1.3-.3-1.9-.4-5-1.4-11-4.7-16.8-9.6h-.1c-9.6-8-15.2-17.3-14-22.5.1-.7.5-1.4 1-2 .2-.3.5-.5.8-.8 4.4-3.1 15.4.7 25.5 9.2.4.3.8.7 1.2 1 9.3 8.2 14.5 17.5 12.6 22.3z" fill="#E9E9FF" stroke="#616CF6" stroke-width="1.5" stroke-linecap="round" stroke-linejoin="round"/><path d="M75.9 52.8 61.6 67.4" stroke="#6464FF" stroke-width="1.5" stroke-linecap="round" stroke-linejoin="round"/><path d="M44.8 89.7a5.2 5.2 0 1 0 0-10.4 5.2 5.2 0 0 0 0 10.4z" fill="#E9E9FF" stroke="#616CF6" stroke-width="1.5" stroke-linecap="round" stroke-linejoin="round"/><path d="M56.9 103.2c0 1.6-.3 3.2-.9 4.7 0 .1-.1.3-.2.4-.4.9-.9 1.8-1.6 2.6H34c-4.3-5.6-3.2-13.6 2.4-17.9 2.2-1.7 4.9-2.6 7.7-2.6h.7c3.1.2 6.1 1.5 8.3 3.7 2.5 2.5 3.8 5.8 3.8 9.1z" fill="#fff" stroke="#6464FF" stroke-width="1.5" stroke-linecap="round" stroke-linejoin="round"/><path d="M85.5 46.6c0 .6-.1 1.1-.4 1.6-.9 1.7-3 2.4-4.7 1.4-1.7-.9-2.4-3-1.4-4.7.9-1.7 3-2.4 4.7-1.4 1.1.6 1.8 1.8 1.8 3.1z" fill="#E9E9FF" stroke="#616CF6" stroke-width="1.5" stroke-linecap="round" stroke-linejoin="round"/><path d="M56.9 108.4H31.4v2.6h25.5v-2.6z" fill="#fff" stroke="#6464FF" stroke-width="1.5" stroke-linecap="round" stroke-linejoin="round"/><path opacity=".1" d="M85 78.5c-7.6 6.4-18 8.3-27.1 4-2.5-1.2-4.7-2.7-6.6-4.7 13.6 3.6 27.2-.8 27.2-.8l1.9.4 4.6 1.1zm-9.9-27.1c-6.8-2.8-14-4.7-21.3-5.8-3.6-.6-6-.8-6-.8.1-.7.5-1.4 1-2 .2-.3.5-.5.8-.8 4.4-2.9 15.3.9 25.5 9.4zm-18.2 51.8c0 1.6-.3 3.2-.9 4.7H39.7c7.2-.4 13.5-13.7 13.5-13.7 2.3 2.4 3.7 5.7 3.7 9z" fill="#616CF6"/><path d="M42 93.5s-6.3 2-6.7 7.7m0 2.7v1.4m12.8-37.5c.5 1.1 1.1 2.2 1.9 3.1m-3.1-13c-.3 2.3-.2 4.7.2 7" stroke="#6464FF" stroke-width="1.5" stroke-linecap="round" stroke-linejoin="round"/><path opacity=".1" d="M85.5 46.6c0 .6-.1 1.1-.4 1.6L82 50.1v-7c1.9 0 3.5 1.6 3.5 3.5z" fill="#616CF6"/><path d="M94.502 38.357a14.274 14.274 0 0 1-.18-1.558 5.97 5.97 0 0 1 .069-1.336 4.75 4.75 0 0 1 .434-1.21 4.47 4.47 0 0 1 .863-1.177 52.9 52.9 0 0 0 .721-.756c.252-.289.476-.59.67-.905a3.83 3.83 0 0 0 .46-1.057c.115-.372.138-.764.07-1.176-.138-.825-.497-1.392-1.078-1.7-.564-.313-1.241-.403-2.031-.272a3 3 0 0 0-1 .352 2.16 2.16 0 0 0-.787.687c-.2.28-.346.623-.438 1.026-.075.4-.069.859.017 1.374l-2.963.493c-.152-.91-.131-1.743.06-2.499.193-.755.508-1.408.946-1.958a5.13 5.13 0 0 1 1.623-1.382 6.197 6.197 0 0 1 2.1-.747 6.672 6.672 0 0 1 2.25-.004c.727.127 1.385.37 1.975.73.587.345 1.08.81 1.477 1.397.412.567.682 1.237.811 2.01.1.6.096 1.157-.013 1.67a5.447 5.447 0 0 1-.511 1.382 6.077 6.077 0 0 1-.743 1.104c-.264.326-.499.612-.705.858-.372.415-.666.773-.88 1.074-.2.28-.347.57-.438.867a3.323 3.323 0 0 0-.108.945c.023.349.077.781.163 1.297l-2.834.471zm-.233 3.217a2.229 2.229 0 0 1 .018-.85c.074-.296.19-.553.348-.774a2.09 2.09 0 0 1 .618-.58 2.01 2.01 0 0 1 .82-.321c.31-.051.603-.039.88.039.293.057.55.173.773.348.238.154.431.36.58.618.163.238.269.503.318.795a2.13 2.13 0 0 1-.04.88c-.06.275-.175.532-.347.773-.158.22-.364.413-.619.58-.237.163-.51.27-.82.321-.31.052-.603.039-.88-.039a2.768 2.768 0 0 1-.773-.348 2.77 2.77 0 0 1-.58-.618 2.438 2.438 0 0 1-.296-.825z" fill="#00EBE2"/></svg>