<svg width="128" height="128" fill="none" xmlns="http://www.w3.org/2000/svg"><path d="M125.141 68.317C140.6 25.397 89.404 3.41 66.417.766 16.827-4.731 10.1 19.689 1.669 63.349c-10.239 52.54 28.51 57.403 64.848 62.689 64.045 9.408 43.667-15.858 58.624-57.72z" fill="#F2FEFD"/><path d="M68.358 111.766c19.558 0 35.414-1.656 35.414-3.7 0-2.043-15.856-3.7-35.414-3.7-19.56 0-35.415 1.657-35.415 3.7 0 2.044 15.856 3.7 35.415 3.7z" fill="#DAFBFA"/><path d="M95.738 26.666c-1.269.106-4.229.529-5.392 3.594-.317.74-.423 1.692-.423 2.537l.212 8.986v42.92s.423 5.709-7.506 7.612c-13.214.423-10.36-12.263-10.36-12.263H44.783V34.7s-.528-7.928 9.197-8.14h41.758v.106z" fill="#fff" stroke="#616CF6" stroke-width="1.5" stroke-miterlimit="10" stroke-linecap="round" stroke-linejoin="round"/><path d="M82.63 92.209c-.846.211-1.903.423-3.066.528H46.793c-2.538 0-4.758-.74-6.66-2.114-3.278-2.22-5.392-6.131-5.075-10.36v-.317H72.27S69.415 92.632 82.63 92.21z" fill="#fff" stroke="#4A4A4A" stroke-width="1.5" stroke-miterlimit="10" stroke-linecap="round" stroke-linejoin="round"/><path d="M100.812 41.678H90.135l-.211-8.986c0-.846.105-1.692.423-2.537 1.163-2.96 4.123-3.489 5.391-3.595h.634c0 .106 7.189.423 4.44 15.118zM82.63 92.209c-.846.211-1.903.423-3.066.528H46.793c-2.538 0-4.758-.74-6.66-2.114-3.278-2.22-5.392-6.131-5.075-10.36v-.317H72.27S69.415 92.632 82.63 92.21z" fill="#E9E9FF" stroke="#616CF6" stroke-width="1.5" stroke-miterlimit="10" stroke-linecap="round" stroke-linejoin="round"/><path d="M83.264 41.149H50.387c-.952 0-1.798-.846-1.798-1.797 0-.952.846-1.797 1.797-1.797h32.878c.951 0 1.797.845 1.797 1.797 0 1.057-.846 1.797-1.797 1.797zm0 8.457H50.387c-.952 0-1.798-.846-1.798-1.797s.846-1.797 1.797-1.797h32.878c.951 0 1.797.846 1.797 1.797s-.846 1.797-1.797 1.797zm0 8.457H50.387c-.952 0-1.798-.846-1.798-1.797s.846-1.797 1.797-1.797h32.878c.951 0 1.797.846 1.797 1.797 0 .952-.846 1.797-1.797 1.797zm0 8.457H50.387c-.952 0-1.798-.845-1.798-1.797 0-.951.846-1.797 1.797-1.797h32.878c.951 0 1.797.846 1.797 1.797 0 .952-.846 1.797-1.797 1.797zm0 8.458H50.387c-1.058 0-1.798-.846-1.798-1.903 0-.952.846-1.797 1.797-1.797h32.878c.951 0 1.797.845 1.797 1.797 0 1.057-.846 1.903-1.797 1.903z" fill="#EFF0FD"/><path d="m28.927 62.82 1.057 1.903 1.903 1.057-1.903 1.058-1.057 1.902-1.057-1.902-1.903-1.058 1.903-1.057 1.057-1.903z" fill="#00EBE2"/><path d="m36.115 21.909 1.374 2.537 2.537 1.374-2.537 1.48-1.374 2.537-1.48-2.537-2.537-1.48 2.537-1.374 1.48-2.537zm76.643 21.671.846 1.586 1.586.846-1.586.846-.846 1.585-.846-1.585-1.585-.846 1.585-.846.846-1.586z" fill="#616CF6"/><path d="M99.001 46.657 67.79 57.642l5.159 14.659 31.212-10.985-5.159-14.66z" fill="#E9E9FF" stroke="#616CF6" stroke-width="1.5" stroke-miterlimit="10" stroke-linecap="round" stroke-linejoin="round"/><path d="m76.816 72.229 18.182-3.489 1.269-.317 3.806-.74 2.431-.423-1.057-5.074-1.057-5.391-.952-4.758-2.114.423-21.988 4.229-.212.106-2.748.528-4.44.846-.423.106H67.3l-.211.105.423 2.537.317 1.375.951 4.863.212 1.268.74 3.806" fill="#E9E9FF"/><path d="m76.816 72.229 18.182-3.489 1.269-.317 3.806-.74 2.431-.423-1.057-5.074-1.057-5.391-.952-4.758-2.114.423-21.988 4.229-.212.106-2.748.528-4.44.846-.423.106H67.3l-.211.105.423 2.537.317 1.375.951 4.863.212 1.268.74 3.806" stroke="#616CF6" stroke-width="1.5" stroke-miterlimit="10" stroke-linecap="round" stroke-linejoin="round"/><path d="M100.178 56.689H67.09v15.54h33.088v-15.54z" fill="#fff" stroke="#616CF6" stroke-width="1.5" stroke-miterlimit="10" stroke-linecap="round" stroke-linejoin="round"/><path d="M100.178 68.423H67.09v3.806h33.088v-3.806zm0-11.628H67.09v4.122h33.088v-4.122z" fill="#E9E9FF"/><path d="M100.178 56.689H67.09v15.54h33.088v-15.54z" stroke="#616CF6" stroke-width="1.5" stroke-miterlimit="10" stroke-linecap="round" stroke-linejoin="round"/><path d="M72.375 57.006c0 2.96-2.431 5.392-5.391 5.392v-5.603h5.391v.211zm0 15.223h-5.391v-5.391c3.066 0 5.391 2.43 5.391 5.39zm27.698-5.18v5.286h-6.449c0-2.96 2.431-5.392 5.392-5.392.317-.105.74 0 1.057.106zm-.001-10.36v4.651c-.317.106-.74.106-1.057.106-2.748 0-4.968-2.114-5.285-4.757h6.342z" fill="#fff" stroke="#616CF6" stroke-width="1.5" stroke-miterlimit="10" stroke-linecap="round" stroke-linejoin="round"/><path d="M83.581 70.537a5.814 5.814 0 1 0 0-11.628 5.814 5.814 0 0 0 0 11.628z" fill="#fff"/><path d="M84.788 64.78a.873.873 0 0 0-.273-.653c-.18-.177-.484-.337-.913-.48-.598-.182-1.034-.42-1.31-.711-.271-.295-.407-.668-.407-1.12 0-.46.133-.837.4-1.132.269-.294.638-.47 1.106-.526v-.921h.627v.925c.472.065.838.263 1.099.594.264.33.395.784.395 1.36h-.774c0-.396-.094-.71-.282-.944a.928.928 0 0 0-.762-.349c-.334 0-.589.087-.766.261-.176.171-.265.411-.265.72 0 .286.093.515.278.686.188.168.495.322.922.463.429.137.763.29 1.001.458.242.166.418.36.53.581.116.222.173.481.173.779 0 .474-.143.855-.43 1.144-.282.29-.68.46-1.194.514v.804h-.623v-.804c-.522-.048-.932-.233-1.23-.556-.294-.325-.441-.766-.441-1.321h.779c0 .39.102.69.307.9.205.211.495.316.87.316.368 0 .657-.088.868-.265.21-.177.316-.418.316-.724z" fill="#CECDFF"/></svg>