<svg width="128" height="128" fill="none" xmlns="http://www.w3.org/2000/svg"><path d="M123.369 68.573c15.239-42.763-7.917-75.52-57.891-67.304C16.888 9.274 9.96 20.122 1.648 63.518c-10.093 52.348 28.006 57.193 63.83 62.565 63.234 9.269 43.146-15.905 57.891-57.51z" fill="#F2FEFD"/><path d="M63.993 105.099c18.31 0 33.151-1.551 33.151-3.464 0-1.912-14.842-3.463-33.15-3.463-18.31 0-33.152 1.55-33.152 3.463s14.842 3.464 33.151 3.464z" fill="#DAFBFA"/><path d="M89.624 25.338c-1.188.099-3.959.495-5.047 3.364-.297.693-.396 1.584-.396 2.375l.198 8.412v40.177s.395 5.344-7.026 7.126c-12.37.395-9.698-11.579-9.698-11.579h-25.73V32.958s-.495-7.422 8.61-7.62h39.089z" fill="#fff" stroke="#616CF6" stroke-width="1.5" stroke-miterlimit="10" stroke-linecap="round" stroke-linejoin="round"/><path d="M77.353 86.791c-.792.198-1.782.396-2.87.495H43.805c-2.375 0-4.453-.692-6.234-1.979-3.068-2.078-5.047-5.74-4.75-9.698v-.297h34.834c0-.099-2.672 11.875 9.698 11.48z" fill="#fff" stroke="#4A4A4A" stroke-width="1.5" stroke-miterlimit="10" stroke-linecap="round" stroke-linejoin="round"/><path d="M94.374 39.489h-9.995l-.198-8.411c0-.792.099-1.584.395-2.375 1.09-2.771 3.86-3.266 5.047-3.365h.594s6.73.396 4.157 14.151zM77.353 86.791c-.792.198-1.782.396-2.87.495H43.805c-2.375 0-4.453-.692-6.234-1.979-3.068-2.078-5.047-5.74-4.75-9.698v-.297h34.834c0-.099-2.672 11.875 9.698 11.48z" fill="#E9E9FF" stroke="#616CF6" stroke-width="1.5" stroke-miterlimit="10" stroke-linecap="round" stroke-linejoin="round"/><path d="M77.946 38.994H47.17c-.89 0-1.682-.791-1.682-1.682 0-.89.791-1.682 1.682-1.682h30.776c.891 0 1.683.791 1.683 1.682 0 .89-.792 1.682-1.683 1.682zm0 7.917H47.17c-.89 0-1.682-.792-1.682-1.682 0-.89.791-1.683 1.682-1.683h30.776c.891 0 1.683.792 1.683 1.683 0 .89-.792 1.682-1.683 1.682zm0 7.818H47.17c-.89 0-1.682-.792-1.682-1.682 0-.891.791-1.683 1.682-1.683h30.776c.891 0 1.683.792 1.683 1.683 0 .99-.792 1.682-1.683 1.682zm0 7.917H47.17c-.89 0-1.682-.792-1.682-1.683 0-.89.791-1.682 1.682-1.682h30.776c.891 0 1.683.792 1.683 1.682 0 .99-.792 1.683-1.683 1.683zm0 7.916H47.17c-.89 0-1.682-.791-1.682-1.682 0-.89.791-1.682 1.682-1.682h30.776c.891 0 1.683.791 1.683 1.682 0 .89-.792 1.682-1.683 1.682z" fill="#EFF0FD"/><path d="m27.081 59.182.99 1.781 1.781.99-1.781.99-.99 1.78-.99-1.78-1.78-.99 1.78-.99.99-1.781z" fill="#00EBE2"/><path d="m33.81 20.885 1.287 2.474 2.375 1.286-2.375 1.287-1.286 2.375-1.386-2.375-2.375-1.287 2.375-1.286 1.386-2.474zm64.62 36.912.792 1.484 1.485.792-1.484.791-.792 1.485-.792-1.485-1.484-.791 1.484-.792.792-1.484z" fill="#616CF6"/></svg>