<svg width="129" height="129" fill="none" xmlns="http://www.w3.org/2000/svg"><path d="M126.146 69.335C141.578 26.38 90.384 4.331 67.436 1.772c-49.619-5.53-56.311 18.908-64.78 62.53-10.195 52.536 28.447 57.432 64.78 62.741 64.088 9.391 43.699-15.894 58.71-57.708z" fill="#F2FEFD"/><path d="M65.7 110.69c18.502 0 33.5-1.567 33.5-3.5s-14.998-3.5-33.5-3.5c-18.501 0-33.5 1.567-33.5 3.5s14.999 3.5 33.5 3.5z" fill="#DAFBFA"/><path d="M91.64 30.17a5.601 5.601 0 0 0-5.15 3.35 6.14 6.14 0 0 0-.38 2.37l.16 8.51V85s.37 5.43-7.09 7.2c-12.52.43-9.76-11.64-9.76-11.64h-26V37.83s-.46-7.51 8.73-7.66h39.49z" fill="#fff" stroke="#616CF6" stroke-width="1.5" stroke-linecap="round" stroke-linejoin="round"/><path d="M79.18 92.2c-.942.218-1.897.372-2.86.46h-31a11.17 11.17 0 0 1-11.13-11.79v-.31h35.2s-2.73 12.07 9.79 11.64z" fill="#fff" stroke="#4A4A4A" stroke-width="1.5" stroke-linecap="round" stroke-linejoin="round"/><path d="M96.38 44.4H86.27l-.16-8.51a6.14 6.14 0 0 1 .38-2.37 5.601 5.601 0 0 1 5.15-3.35h.6s6.76.36 4.14 14.23zm-17.2 47.8c-.942.218-1.897.372-2.86.46h-31a11.17 11.17 0 0 1-11.13-11.79v-.31h35.2s-2.73 12.07 9.79 11.64z" fill="#E9E9FF" stroke="#616CF6" stroke-width="1.5" stroke-linecap="round" stroke-linejoin="round"/><path d="M79.82 42.51H56.8a1.7 1.7 0 1 0 0 3.4h23.02a1.7 1.7 0 1 0 0-3.4zm0 8.98H56.8a1.7 1.7 0 1 0 0 3.4h23.02a1.7 1.7 0 1 0 0-3.4zm0 9.98H56.8a1.7 1.7 0 1 0 0 3.4h23.02a1.7 1.7 0 1 0 0-3.4zm0 8.98H56.8a1.7 1.7 0 1 0 0 3.4h23.02a1.7 1.7 0 1 0 0-3.4z" fill="#EFF0FD"/><path d="m28.38 64.35.99 1.82 1.82.99-1.82 1-.99 1.82-1-1.82-1.82-1 1.82-.99 1-1.82z" fill="#00EBE2"/><path d="m35.16 25.67 1.33 2.42 2.42 1.33-2.42 1.32-1.33 2.43-1.32-2.43-2.43-1.32 2.43-1.33 1.32-2.42z" fill="#616CF6"/><path d="m107.7 46.19.82 1.49 1.48.81-1.48.81-.82 1.48-.81-1.48-1.48-.81 1.48-.81.81-1.49z" fill="#00EBE2"/><path d="M94.62 49.086 65.133 59.464l4.87 13.838L99.49 62.923l-4.87-13.837z" fill="#E9E9FF" stroke="#616CF6" stroke-width="1.5" stroke-linecap="round" stroke-linejoin="round"/><path d="m73.7 73.3 17.19-3.36 1.2-.24 3.62-.71 2.24-.44-.93-4.76-1-5.11-.88-4.53-2 .39-20.85 4.08-.23.05-2.56.49-4.19.83-.42.08-.19.04-.23.05h-.01l.01.04.46 2.4.25 1.27.91 4.64.23 1.19.71 3.6" fill="#E9E9FF"/><path d="m73.7 73.3 17.19-3.36 1.2-.24 3.62-.71 2.24-.44-.93-4.76-1-5.11-.88-4.53-2 .39-20.85 4.08-.23.05-2.56.49-4.19.83-.42.08-.19.04-.23.05h-.01l.01.04.46 2.4.25 1.27.91 4.64.23 1.19.71 3.6" stroke="#616CF6" stroke-width="1.5" stroke-linecap="round" stroke-linejoin="round"/><path d="M95.72 58.62H64.46v14.67h31.26V58.62z" fill="#fff" stroke="#616CF6" stroke-width="1.5" stroke-linecap="round" stroke-linejoin="round"/><path d="M95.72 69.7H64.46v3.59h31.26V69.7zm.01-11.03H64.47v3.94h31.26v-3.94z" fill="#E9E9FF"/><path d="M95.72 58.62H64.46v14.67h31.26V58.62z" stroke="#616CF6" stroke-width="1.5" stroke-linecap="round" stroke-linejoin="round"/><path d="M69.52 58.86a5.06 5.06 0 0 1-5.06 5.07v-5.31h5.05c.008.08.012.16.01.24zm0 14.44h-5.06v-5.07a5.06 5.06 0 0 1 5.06 5.07zm26.19-4.96v5H89.6a5.07 5.07 0 0 1 5.07-5.07c.348-.012.697.012 1.04.07zm0-9.72V63c-.329.07-.664.106-1 .11a5.05 5.05 0 0 1-5-4.49h6z" fill="#fff" stroke="#616CF6" stroke-width="1.5" stroke-linecap="round" stroke-linejoin="round"/><path d="M80.08 71.73a5.51 5.51 0 1 0 0-11.02 5.51 5.51 0 0 0 0 11.02z" fill="#fff"/><path d="M81.433 66.582a.873.873 0 0 0-.274-.653c-.18-.177-.484-.336-.913-.48-.598-.182-1.034-.419-1.309-.71-.272-.296-.408-.669-.408-1.12 0-.46.133-.838.4-1.133.269-.294.638-.47 1.107-.526v-.922h.627v.926c.471.065.837.263 1.098.594.264.331.396.784.396 1.36h-.775c0-.396-.094-.71-.282-.943a.928.928 0 0 0-.761-.35c-.334 0-.59.087-.766.261-.177.171-.266.411-.266.72 0 .286.093.515.278.686.188.168.496.323.922.463.43.138.763.29 1.002.459.241.165.418.359.53.58.115.222.173.482.173.78 0 .474-.144.855-.43 1.144-.283.29-.681.46-1.195.514v.803h-.623v-.803c-.522-.048-.932-.233-1.229-.556-.295-.326-.442-.766-.442-1.322h.779c0 .39.102.69.307.901.205.21.495.316.871.316.368 0 .657-.089.867-.265.21-.177.316-.418.316-.724z" fill="#CECDFF"/><path d="M52.46 69.02h-5.61v5.61h5.61v-5.61zm0-9.22h-5.61v5.61h5.61V59.8zm0-9.41h-5.61V56h5.61v-5.61zm0-8.99h-5.61v5.61h5.61V41.4z" fill="#fff" stroke="#CECDFF" stroke-width="1.2" stroke-linecap="round" stroke-linejoin="round"/><path d="M49.56 54.75a.79.79 0 0 1-.62-.31l-.69-.88a1 1 0 0 1 0-1.24.76.76 0 0 1 1.18.06L52 49.32a.77.77 0 0 1 1.15-.19 1 1 0 0 1 .18 1.23l-3.06 4a.801.801 0 0 1-.61.37l-.1.02z" fill="#616CF6"/><path d="M52.61 49.2a.54.54 0 0 1 .33.12.7.7 0 0 1 .13.9l-3 4a.55.55 0 0 1-.43.27.56.56 0 0 1-.42-.21l-.7-.88a.72.72 0 0 1 0-.92.56.56 0 0 1 .39-.17.57.57 0 0 1 .42.22l.22.28 2.64-3.35a.53.53 0 0 1 .46-.27l-.04.01zm.04-.51a1 1 0 0 0-.87.48L49.49 52a1 1 0 0 0-1.36.1 1.23 1.23 0 0 0-.08 1.58l.7.88a1 1 0 0 0 .81.4h.07a1.07 1.07 0 0 0 .82-.51l3-4a1.23 1.23 0 0 0-.21-1.6 1 1 0 0 0-.65-.23l.06.07z" fill="#fff"/><path d="M49.56 45.81a.79.79 0 0 1-.62-.31l-.69-.88a1 1 0 0 1 0-1.24.78.78 0 0 1 1.18.06L52 40.38a.79.79 0 0 1 .66-.37.74.74 0 0 1 .49.18 1 1 0 0 1 .18 1.23l-3.06 4a.801.801 0 0 1-.61.37l-.1.02z" fill="#616CF6"/><path d="M52.61 40.26a.54.54 0 0 1 .33.12.71.71 0 0 1 .13.91l-3 4a.55.55 0 0 1-.43.27.56.56 0 0 1-.42-.21l-.7-.88a.72.72 0 0 1 0-.92.54.54 0 0 1 .81.05l.22.28 2.64-3.35a.53.53 0 0 1 .46-.27h-.04zm.04-.5a1 1 0 0 0-.87.48l-2.29 2.86a1 1 0 0 0-.62-.21 1 1 0 0 0-.74.31 1.23 1.23 0 0 0-.08 1.58l.7.88a1 1 0 0 0 .81.4h.07a1.069 1.069 0 0 0 .82-.51l3-4a1.23 1.23 0 0 0-.21-1.6 1 1 0 0 0-.65-.23l.06.04z" fill="#fff"/></svg>