<svg width="129" height="129" fill="none" xmlns="http://www.w3.org/2000/svg"><path d="M126.146 69.335C141.578 26.38 90.384 4.331 67.436 1.772c-49.619-5.53-56.311 18.908-64.78 62.53-10.195 52.536 28.447 57.432 64.78 62.741 64.088 9.391 43.699-15.894 58.71-57.708z" fill="#F2FEFD"/><path d="M67.7 112.69c18.502 0 33.5-1.567 33.5-3.5s-14.998-3.5-33.5-3.5c-18.501 0-33.5 1.567-33.5 3.5s14.999 3.5 33.5 3.5z" fill="#DAFBFA"/><path d="M93.64 32.16a5.62 5.62 0 0 0-5.15 3.36 6.14 6.14 0 0 0-.38 2.37l.15 8.51V87s.38 5.43-7.09 7.2c-12.51.43-9.75-11.64-9.75-11.64h-26V39.82s-.46-7.5 8.73-7.66h39.49z" fill="#fff" stroke="#616CF6" stroke-width="1.5" stroke-linecap="round" stroke-linejoin="round"/><path d="M81.18 94.2c-.942.218-1.897.372-2.86.46h-31a11.17 11.17 0 0 1-11.13-11.79v-.31h35.2s-2.73 12.07 9.79 11.64z" fill="#fff" stroke="#4A4A4A" stroke-width="1.5" stroke-linecap="round" stroke-linejoin="round"/><path d="M98.38 46.4H88.27l-.16-8.51a6.14 6.14 0 0 1 .38-2.37 5.601 5.601 0 0 1 5.15-3.35h.6s6.76.36 4.14 14.23zm-17.2 47.8c-.942.218-1.897.372-2.86.46h-31a11.17 11.17 0 0 1-11.13-11.79v-.31h35.2s-2.73 12.07 9.79 11.64z" fill="#E9E9FF" stroke="#616CF6" stroke-width="1.5" stroke-linecap="round" stroke-linejoin="round"/><path d="M81.81 42.51H50.67a1.7 1.7 0 1 0 0 3.4h31.14a1.7 1.7 0 1 0 0-3.4zm0 7.98H50.67a1.7 1.7 0 1 0 0 3.4h31.14a1.7 1.7 0 1 0 0-3.4zm0 7.98H50.67a1.7 1.7 0 1 0 0 3.4h31.14a1.7 1.7 0 1 0 0-3.4zm0 7.98H50.67a1.7 1.7 0 1 0 0 3.4h31.14a1.7 1.7 0 1 0 0-3.4zm0 7.98H50.67a1.7 1.7 0 1 0 0 3.4h31.14a1.7 1.7 0 0 0 0-3.4z" fill="#EFF0FD"/><path d="m26.6 61.79.99 1.82 1.82.99-1.82 1-.99 1.82-1-1.82-1.82-1 1.82-.99 1-1.82z" fill="#00EBE2"/><path d="m46.32 21.52 1.32 2.43 2.43 1.32-2.43 1.33-1.32 2.42-1.33-2.42-2.42-1.33 2.42-1.32 1.33-2.43z" fill="#616CF6"/><path d="m112 40.21.81 1.48 1.49.82-1.49.81-.81 1.48-.81-1.48-1.49-.81 1.49-.82.81-1.48z" fill="#00EBE2"/><path opacity=".1" d="M88.26 49v35.4h-.64a17.73 17.73 0 0 1 0-35.45l.64.05z" fill="#6464FF"/><path d="M100.67 73.93c-.15.27-.3.54-.48.8a14.926 14.926 0 0 1-17.839 6.013 14.93 14.93 0 0 1-2.08-27.013c.31-.18.63-.34 1-.49a14.54 14.54 0 0 1 6-1.44 14.92 14.92 0 0 1 13.399 22.13z" fill="#E9E9FF" stroke="#616CF6" stroke-width="1.5" stroke-linecap="round" stroke-linejoin="round"/><path d="M87.93 77.85a11.16 11.16 0 1 1 10.85-11.47 11.18 11.18 0 0 1-10.85 11.47z" fill="#fff" stroke="#616CF6" stroke-width="1.5" stroke-linecap="round" stroke-linejoin="round"/><path d="m87.15 60.06.25 9 6.26-.17" stroke="#616CF6" stroke-width="1.5" stroke-linecap="round" stroke-linejoin="round"/></svg>