<?xml version="1.0" encoding="UTF-8"?>
<svg width="66px" height="44px" viewBox="0 0 66 44" version="1.1" xmlns="http://www.w3.org/2000/svg" xmlns:xlink="http://www.w3.org/1999/xlink">
    <title>Group 9</title>
    <g id="Website" stroke="none" stroke-width="1" fill="none" fill-rule="evenodd">
        <g id="homepage" transform="translate(-539.000000, -931.000000)" stroke="#4B4C4C">
            <g id="8-services" transform="translate(1.000000, 666.000000)">
                <g id="Group-4" transform="translate(122.000000, 235.000000)">
                    <g id="Group-14" transform="translate(400.000000, 0.000000)">
                        <g id="Group-9" transform="translate(16.000000, 31.000000)">
                            <g id="Group-2-Copy" transform="translate(42.464054, 0.000000)">
                                <g id="Group-10" fill-rule="nonzero">
                                    <rect id="Rectangle" fill="#EAEAEA" x="3.878469" y="28" width="17" height="14"></rect>
                                    <rect id="Rectangle-Copy-11" fill="#EAEAEA" x="-2.84284381e-14" y="4.06120544e-15" width="19.392345" height="40.8259895"></rect>
                                    <rect id="Rectangle" fill="#FFFFFF" x="2.85781926" y="4.06120544e-15" width="19.392345" height="40.8259895"></rect>
                                    <rect id="Rectangle-Copy" fill="#FFFFFF" x="4.89911874" y="32.6607916" width="15.3097461" height="6.12389842"></rect>
                                    <rect id="Rectangle-Copy-2" fill="#FFFFFF" x="4.89911874" y="26.5368932" width="15.3097461" height="6.12389842"></rect>
                                    <rect id="Rectangle-Copy-3" fill="#FFFFFF" x="4.89911874" y="20.4129947" width="15.3097461" height="6.12389842"></rect>
                                    <rect id="Rectangle-Copy-4" fill="#FFFFFF" x="4.89911874" y="14.2890963" width="15.3097461" height="6.12389842"></rect>
                                    <rect id="Rectangle-Copy-5" fill="#FFFFFF" x="4.89911874" y="8.1651979" width="15.3097461" height="6.12389842"></rect>
                                    <rect id="Rectangle-Copy-6" fill="#FFFFFF" x="4.89911874" y="2.04129947" width="15.3097461" height="6.12389842"></rect>
                                </g>
                                <g id="Group-3" transform="translate(11.023017, 2.551624)" stroke-linecap="square">
                                    <line x1="0.364517763" y1="14.2890963" x2="4.73873092" y2="14.2890963" id="Line"></line>
                                    <line x1="0.364517763" y1="20.4129947" x2="4.73873092" y2="20.4129947" id="Line-Copy"></line>
                                    <line x1="0.364517763" y1="1.02064974" x2="4.73873092" y2="1.02064974" id="Line-Copy-5"></line>
                                    <line x1="0.364517763" y1="7.14454816" x2="4.73873092" y2="7.14454816" id="Line-Copy-4"></line>
                                    <line x1="0.364517763" y1="26.5368932" x2="4.73873092" y2="26.5368932" id="Line-Copy-2"></line>
                                    <line x1="0.364517763" y1="32.6607916" x2="4.73873092" y2="32.6607916" id="Line-Copy-3"></line>
                                </g>
                                <g id="Group-3-Copy" transform="translate(7.961068, 2.551624)" stroke-linecap="square">
                                    <line x1="1.09355329" y1="1.02064974" x2="1.60387816" y2="1.02064974" id="Line"></line>
                                    <line x1="1.09355329" y1="7.14454816" x2="1.60387816" y2="7.14454816" id="Line-Copy"></line>
                                    <line x1="1.09355329" y1="14.2890963" x2="1.60387816" y2="14.2890963" id="Line-Copy-7"></line>
                                    <line x1="1.09355329" y1="20.4129947" x2="1.60387816" y2="20.4129947" id="Line-Copy-6"></line>
                                    <line x1="1.09355329" y1="26.5368932" x2="1.60387816" y2="26.5368932" id="Line-Copy-2"></line>
                                    <line x1="1.09355329" y1="32.6607916" x2="1.60387816" y2="32.6607916" id="Line-Copy-3"></line>
                                </g>
                            </g>
                            <g id="Group-2-Copy-2" transform="translate(21.474470, 0.000000)">
                                <g id="Group-10" fill-rule="nonzero">
                                    <rect id="Rectangle" fill="#EAEAEA" x="3.878469" y="28" width="17" height="14"></rect>
                                    <rect id="Rectangle-Copy-11" fill="#EAEAEA" x="-2.84284381e-14" y="4.06120544e-15" width="19.392345" height="40.8259895"></rect>
                                    <rect id="Rectangle" fill="#FFFFFF" x="2.85781926" y="4.06120544e-15" width="19.392345" height="40.8259895"></rect>
                                    <rect id="Rectangle-Copy" fill="#FFFFFF" x="4.89911874" y="32.6607916" width="15.3097461" height="6.12389842"></rect>
                                    <rect id="Rectangle-Copy-2" fill="#FFFFFF" x="4.89911874" y="26.5368932" width="15.3097461" height="6.12389842"></rect>
                                    <rect id="Rectangle-Copy-3" fill="#FFFFFF" x="4.89911874" y="20.4129947" width="15.3097461" height="6.12389842"></rect>
                                    <rect id="Rectangle-Copy-4" fill="#FFFFFF" x="4.89911874" y="14.2890963" width="15.3097461" height="6.12389842"></rect>
                                    <rect id="Rectangle-Copy-5" fill="#FFFFFF" x="4.89911874" y="8.1651979" width="15.3097461" height="6.12389842"></rect>
                                    <rect id="Rectangle-Copy-6" fill="#FFFFFF" x="4.89911874" y="2.04129947" width="15.3097461" height="6.12389842"></rect>
                                </g>
                                <g id="Group-3" transform="translate(11.023017, 2.551624)" stroke-linecap="square">
                                    <line x1="0.364517763" y1="14.2890963" x2="4.73873092" y2="14.2890963" id="Line"></line>
                                    <line x1="0.364517763" y1="20.4129947" x2="4.73873092" y2="20.4129947" id="Line-Copy"></line>
                                    <line x1="0.364517763" y1="1.02064974" x2="4.73873092" y2="1.02064974" id="Line-Copy-5"></line>
                                    <line x1="0.364517763" y1="7.14454816" x2="4.73873092" y2="7.14454816" id="Line-Copy-4"></line>
                                    <line x1="0.364517763" y1="26.5368932" x2="4.73873092" y2="26.5368932" id="Line-Copy-2"></line>
                                    <line x1="0.364517763" y1="32.6607916" x2="4.73873092" y2="32.6607916" id="Line-Copy-3"></line>
                                </g>
                                <g id="Group-3-Copy" transform="translate(7.961068, 2.551624)" stroke-linecap="square">
                                    <line x1="1.09355329" y1="1.02064974" x2="1.60387816" y2="1.02064974" id="Line"></line>
                                    <line x1="1.09355329" y1="7.14454816" x2="1.60387816" y2="7.14454816" id="Line-Copy"></line>
                                    <line x1="1.09355329" y1="14.2890963" x2="1.60387816" y2="14.2890963" id="Line-Copy-7"></line>
                                    <line x1="1.09355329" y1="20.4129947" x2="1.60387816" y2="20.4129947" id="Line-Copy-6"></line>
                                    <line x1="1.09355329" y1="26.5368932" x2="1.60387816" y2="26.5368932" id="Line-Copy-2"></line>
                                    <line x1="1.09355329" y1="32.6607916" x2="1.60387816" y2="32.6607916" id="Line-Copy-3"></line>
                                </g>
                            </g>
                            <g id="Group-2" transform="translate(0.000000, 8.573458)">
                                <rect id="Rectangle" fill="#EAEAEA" fill-rule="nonzero" x="4" y="19.4265422" width="17" height="14"></rect>
                                <rect id="Rectangle-Copy-10" fill="#EAEAEA" fill-rule="nonzero" x="1" y="19.4265422" width="3" height="14"></rect>
                                <rect id="Rectangle" fill="#FFFFFF" fill-rule="nonzero" x="3.42938312" y="4.57251082" width="19.392345" height="28.5781926"></rect>
                                <rect id="Rectangle-Copy-12" fill="#EAEAEA" fill-rule="nonzero" x="0.530737863" y="4.57251082" width="2.85781926" height="28.5781926"></rect>
                                <rect id="Rectangle-Copy" fill="#FFFFFF" fill-rule="nonzero" x="5.47068259" y="24.9855056" width="15.3097461" height="6.12389842"></rect>
                                <rect id="Rectangle-Copy-2" fill="#FFFFFF" fill-rule="nonzero" x="5.47068259" y="18.8616071" width="15.3097461" height="6.12389842"></rect>
                                <rect id="Rectangle-Copy-3" fill="#FFFFFF" fill-rule="nonzero" x="5.47068259" y="12.7377087" width="15.3097461" height="6.12389842"></rect>
                                <rect id="Rectangle-Copy-7" fill="#FFFFFF" fill-rule="nonzero" x="5.47068259" y="6.6138103" width="15.3097461" height="6.12389842"></rect>
                                <g id="paper" transform="translate(8.206024, 0.163304)">
                                    <rect id="Rectangle-Copy-9" fill="#FFFFFF" fill-rule="nonzero" x="0" y="0" width="12.5744048" height="12.5744048"></rect>
                                    <line x1="1.79634354" y1="1.59221359" x2="10.9413652" y2="1.59221359" id="Line-3" stroke-linecap="square"></line>
                                    <line x1="1.79634354" y1="2.7353413" x2="10.9413652" y2="2.7353413" id="Line-3-Copy" stroke-linecap="square"></line>
                                    <line x1="1.79634354" y1="3.878469" x2="10.9413652" y2="3.878469" id="Line-3-Copy-2" stroke-linecap="square"></line>
                                    <line x1="1.79634354" y1="5.02159671" x2="10.9413652" y2="5.02159671" id="Line-3-Copy-3" stroke-linecap="square"></line>
                                </g>
                                <g id="paper-copy" transform="translate(11.063843, 1.306432)">
                                    <rect id="Rectangle-Copy-9" fill="#FFFFFF" fill-rule="nonzero" x="0" y="0" width="12.5744048" height="11.4312771"></rect>
                                    <line x1="1.79634354" y1="1.59221359" x2="10.9413652" y2="1.59221359" id="Line-3" stroke-linecap="square"></line>
                                    <line x1="1.79634354" y1="2.7353413" x2="10.9413652" y2="2.7353413" id="Line-3-Copy" stroke-linecap="square"></line>
                                    <line x1="1.79634354" y1="3.878469" x2="10.9413652" y2="3.878469" id="Line-3-Copy-2" stroke-linecap="square"></line>
                                </g>
                                <rect id="Rectangle-Copy-8" fill="#EAEAEA" fill-rule="nonzero" x="5.47068259" y="8.1651979" width="15.3097461" height="4.57251082"></rect>
                                <rect id="Rectangle-Copy-4" fill="#32C5FF" fill-rule="nonzero" x="10.6147573" y="6.6138103" width="15.3097461" height="6.12389842"></rect>
                                <line x1="15.2076811" y1="8.65510977" x2="21.3315795" y2="8.65510977" id="Line" stroke-linecap="square"></line>
                                <line x1="10.0636064" y1="14.7790082" x2="16.1875048" y2="14.7790082" id="Line-Copy" stroke-linecap="square"></line>
                                <line x1="10.0636064" y1="20.9029066" x2="16.1875048" y2="20.9029066" id="Line-Copy-2" stroke-linecap="square"></line>
                                <line x1="10.0636064" y1="27.026805" x2="16.1875048" y2="27.026805" id="Line-Copy-3" stroke-linecap="square"></line>
                            </g>
                        </g>
                    </g>
                </g>
            </g>
        </g>
    </g>
</svg>