<?xml version="1.0" encoding="UTF-8"?>
<svg width="86px" height="54px" viewBox="0 0 86 54" version="1.1" xmlns="http://www.w3.org/2000/svg" xmlns:xlink="http://www.w3.org/1999/xlink">
    <title>graphic/office-with-storage</title>
    <g id="graphic/office-with-storage" stroke="none" stroke-width="1" fill="none" fill-rule="evenodd">
        <g id="Group-20" transform="translate(0.000000, 17.000000)" fill-rule="nonzero">
            <g id="Group-5" transform="translate(0.000000, 9.866667)" stroke="#4B4C4C">
                <g id="Group" transform="translate(0.000000, 20.144444)" fill="#FFFFFF">
                    <rect id="Rectangle" x="2.60465116" y="0.822222222" width="1.22093023" height="4.76888889"></rect>
                    <rect id="Rectangle" x="5.61627907" y="0.822222222" width="1.22093023" height="4.76888889"></rect>
                    <rect id="Rectangle" x="8.95348837" y="0.822222222" width="1.22093023" height="4.76888889"></rect>
                    <rect id="Rectangle" x="12.8604651" y="0.822222222" width="1.22093023" height="4.76888889"></rect>
                    <rect id="Rectangle" x="17.0930233" y="0.822222222" width="1.22093023" height="4.76888889"></rect>
                    <rect id="Rectangle" x="21" y="0.822222222" width="1.22093023" height="4.76888889"></rect>
                    <rect id="Rectangle" x="24.4186047" y="0.822222222" width="1.22093023" height="4.76888889"></rect>
                    <rect id="Rectangle" x="28.3255814" y="0.822222222" width="1.22093023" height="4.76888889"></rect>
                    <rect id="Rectangle" x="31.6627907" y="0.822222222" width="1.22093023" height="4.76888889"></rect>
                    <rect id="Rectangle" x="0.569767442" y="4.68666667" width="35" height="1.64444444"></rect>
                    <rect id="Rectangle" x="0.569767442" y="0.575555556" width="35" height="1.64444444"></rect>
                </g>
                <rect id="Rectangle" fill="#EAEAEA" x="1.30232558" y="9.04444444" width="14.9767442" height="11.6755556"></rect>
                <rect id="Rectangle" fill="#FFFFFF" x="16.2790698" y="9.94888889" width="13.755814" height="10.7711111"></rect>
                <rect id="Rectangle" fill="#FFFFFF" x="30.0348837" y="11.5933333" width="5.12790698" height="9.12666667"></rect>
                <rect id="Rectangle" fill="#FFFFFF" x="3.3372093" y="3.72442817e-14" width="13.0232558" height="8.96222222"></rect>
                <rect id="Rectangle" fill="#F5F6F7" x="16.1162791" y="0.904444444" width="12.4534884" height="9.12666667"></rect>
            </g>
            <g id="Group" transform="translate(35.813953, 0.000000)">
                <g transform="translate(0.000000, 13.018519)" id="Rectangle">
                    <rect fill="#4B4C4C" x="32.3546512" y="2.6037037" width="1.28875969" height="21.1037037"></rect>
                    <rect fill="#4B4C4C" x="0.746124031" y="2.6037037" width="1.28875969" height="21.1037037"></rect>
                    <rect stroke="#4B4C4C" fill="#FFFFFF" x="0" y="0" width="34.1860465" height="2.39814815"></rect>
                </g>
                <path d="M23.4689922,10.5518519 L9.97093023,10.5518519 C8.95348837,10.5518519 8.13953488,9.72962963 8.13953488,8.70185185 L8.13953488,1.85 C8.13953488,0.822222222 8.95348837,0 9.97093023,0 L23.4689922,0 C24.4864341,0 25.3003876,0.822222222 25.3003876,1.85 L25.3003876,8.70185185 C25.3003876,9.72962963 24.4864341,10.5518519 23.4689922,10.5518519 Z" id="Path" stroke="#4B4C4C" fill="#FFFFFF"></path>
                <path d="M23.4237726,9.79814815 L10.7622739,9.79814815 C9.75739305,9.79814815 8.95348837,8.97592593 8.95348837,7.94814815 L8.95348837,2.67222222 C8.95348837,1.64444444 9.75739305,0.822222222 10.7622739,0.822222222 L23.4237726,0.822222222 C24.4286535,0.822222222 25.2325581,1.64444444 25.2325581,2.67222222 L25.2325581,7.94814815 C25.1655661,8.97592593 24.3616614,9.79814815 23.4237726,9.79814815 Z" id="Path" fill="#4B4C4C"></path>
                <g transform="translate(9.496124, 7.537037)">
                    <rect id="Rectangle" fill="#4B4C4C" x="4.88372093" y="14.1833333" width="2.10271318" height="10.5518519"></rect>
                    <path d="M11.7344961,15.7592593 L11.7344961,6.44074074 C11.7344961,3.22037037 9.15697674,0.548148148 5.90116279,0.548148148 L5.90116279,0.548148148 C2.71317829,0.548148148 0.0678294574,3.15185185 0.0678294574,6.44074074 L0.0678294574,15.7592593 C0.0678294574,15.6907407 5.90116279,17.8148148 11.7344961,15.7592593 Z" id="Path" stroke="#4B4C4C" fill="#32C5FF"></path>
                    <polygon id="Path" stroke="#4B4C4C" fill="#32C5FF" points="9.83527132 28.4351852 1.49224806 28.4351852 4.6124031 24.5981481 7.18992248 24.5981481"></polygon>
                </g>
                <path d="M23.4689922,14.1148148 L23.1976744,13.9777778 C22.9263566,13.8407407 22.7906977,13.4296296 23.129845,13.0185185 L23.6724806,12.4018519 C23.9437984,12.0592593 24.3507752,11.6481481 24.8255814,11.7851852 L25.0968992,11.8537037 C25.5717054,11.9907407 25.503876,12.3333333 25.3003876,12.6759259 L24.7577519,13.3611111 C24.5542636,13.8407407 24.1472868,14.2518519 23.4689922,14.1148148 Z" id="Path" stroke="#4B4C4C" fill="#FFFFFF"></path>
            </g>
        </g>
    </g>
</svg>